#!OML:ASF X:\für Bonn\!DataBase\2005_08_10_Bjorn_Final\c3d\bjorn.ASF
:FULLY-SPECIFIED
:DEGREES
290
root -0.871667 2.08766 20.0048 -424.075 -170.284 -0.214608
lowerback 40.6053 6.60835 9.55983
upperback 29.1878 -2.08704 2.56006
thorax 14.339 -5.95614 -3.1126
lowerneck 15.1048 10.206 9.75674
upperneck -0.904606 14.5006 -11.8824
head -1.07001 7.59766 -5.71311
rclavicle -3.18055e-015 1.98785e-015
rhumerus -242.89 -179.732 88.9957
rradius 68.7282
rwrist -70.3397
rhand -31.116 -24.1338
rfingers 7.12502
rthumb -4.39511 -54.0682
lclavicle -3.18055e-015 1.98785e-015
lhumerus -426.966 -40.4787 -267.256
lradius 46.8818
lwrist 45.2498
lhand -27.7132 6.68212
lfingers 7.12502
lthumb -1.10895 36.659
rfemur -275.143 -134.634 197.386
rtibia 126.377
rfoot 24.168 10.8045
rtoes -15.7819
lfemur -102.927 25.6066 -26.9343
ltibia 151.802
lfoot 21.6482 -16.7805
ltoes 0.372299
291
root -0.874155 2.08776 20.0056 -424.082 -170.325 -0.0760646
lowerback 40.3446 6.52367 9.56915
upperback 29.115 -2.1083 2.58755
thorax 14.3196 -5.92542 -3.07789
lowerneck 14.6577 10.2556 9.73982
upperneck -0.247213 14.5516 -11.8942
head -0.800773 7.60288 -5.65871
rclavicle 3.18055e-014 -3.02153e-014
rhumerus -242.908 -179.699 89.0724
rradius 68.7078
rwrist -70.3216
rhand -31.3185 -24.2362
rfingers 7.12502
rthumb -4.59066 -54.1664
lclavicle 3.18055e-014 -3.02153e-014
lhumerus -427.509 -40.6859 -266.719
lradius 47.0963
lwrist 45.4393
lhand -27.9334 6.83569
lfingers 7.12502
lthumb -1.32163 36.8113
rfemur -275.09 -134.792 197.401
rtibia 126.422
rfoot 24.0257 10.9347
rtoes -16.0592
lfemur -102.414 23.5925 -26.4547
ltibia 150.605
lfoot 22.5731 -15.2398
ltoes 0.932025
292
root -0.87722 2.08757 20.005 -424.078 -170.339 0.0576157
lowerback 40.0757 6.43766 9.57388
upperback 29.0362 -2.12186 2.59971
thorax 14.2942 -5.88461 -3.05804
lowerneck 14.1914 10.2873 9.80447
upperneck 0.393134 14.5913 -11.9648
head -0.525236 7.60328 -5.63362
rclavicle -1.12313e-014 -2.54444e-014
rhumerus -242.952 -179.584 89.154
rradius 68.6687
rwrist -70.2582
rhand -31.4508 -24.3831
rfingers 7.12502
rthumb -4.71848 -54.3106
lclavicle -1.12313e-014 -2.54444e-014
lhumerus -428.114 -40.9557 -266.156
lradius 47.3072
lwrist 45.6319
lhand -28.1779 6.87821
lfingers 7.12502
lthumb -1.55772 36.8523
rfemur -275.048 -134.929 197.384
rtibia 126.476
rfoot 23.8989 11.0101
rtoes -16.1484
lfemur -101.868 21.6079 -25.9609
ltibia 149.296
lfoot 23.3683 -13.5848
ltoes 1.00461
293
root -0.879669 2.08899 20.0067 -424.087 -170.379 0.196789
lowerback 39.8324 6.36202 9.56963
upperback 28.9655 -2.14489 2.64756
thorax 14.2742 -5.86407 -2.99402
lowerneck 13.6322 10.3655 9.77819
upperneck 1.03746 14.6747 -12.0795
head -0.232991 7.62302 -5.6027
rclavicle -2.06736e-014 2.14687e-014
rhumerus -242.963 -179.519 89.2648
rradius 68.6127
rwrist -70.1609
rhand -31.5857 -24.4624
rfingers 7.12502
rthumb -4.84867 -54.387
lclavicle -2.06736e-014 2.14687e-014
lhumerus -428.669 -41.1345 -265.587
lradius 47.5043
lwrist 45.8496
lhand -28.4027 6.89878
lfingers 7.12502
lthumb -1.77482 36.8711
rfemur -274.966 -135.111 197.398
rtibia 126.519
rfoot 23.6778 11.1405
rtoes -16.6708
lfemur -101.259 19.8186 -25.4546
ltibia 147.892
lfoot 24.1193 -12.2648
ltoes 0.765307
294
root -0.881629 2.09037 20.0073 -424.069 -170.418 0.344799
lowerback 39.5636 6.28029 9.56322
upperback 28.8905 -2.17041 2.68585
thorax 14.2561 -5.83943 -2.93914
lowerneck 13.1588 10.4342 9.74551
upperneck 1.57235 14.7475 -12.219
head 0.0136888 7.63976 -5.58836
rclavicle 1.39149e-015 -3.61788e-014
rhumerus -243.023 -179.45 89.3753
rradius 68.5721
rwrist -70.0321
rhand -31.6428 -24.6267
rfingers 7.12502
rthumb -4.90384 -54.5499
lclavicle 1.39149e-015 -3.61788e-014
lhumerus -429.274 -41.3081 -265.015
lradius 47.731
lwrist 46.0197
lhand -28.6733 6.86633
lfingers 7.12502
lthumb -2.03623 36.8364
rfemur -274.931 -135.299 197.441
rtibia 126.575
rfoot 23.4811 11.1457
rtoes -16.8218
lfemur -100.681 18.1266 -24.9928
ltibia 146.433
lfoot 24.8056 -11.0807
ltoes -0.136346
295
root -0.883632 2.09127 20.0065 -424.074 -170.427 0.499221
lowerback 39.3455 6.19028 9.58004
upperback 28.8136 -2.19983 2.72066
thorax 14.2221 -5.81561 -2.89641
lowerneck 12.6791 10.4903 9.76123
upperneck 2.116 14.8135 -12.372
head 0.267687 7.65146 -5.5847
rclavicle -5.40694e-014 9.14409e-015
rhumerus -243.106 -179.284 89.4978
rradius 68.5185
rwrist -69.8816
rhand -31.6423 -24.7041
rfingers 7.12502
rthumb -4.90338 -54.6273
lclavicle -5.40694e-014 9.14409e-015
lhumerus -429.845 -41.5093 -264.448
lradius 47.8957
lwrist 46.2195
lhand -28.9913 6.60225
lfingers 7.12502
lthumb -2.34328 36.5691
rfemur -274.88 -135.449 197.459
rtibia 126.631
rfoot 23.2724 11.1943
rtoes -17.181
lfemur -100.095 16.4682 -24.6133
ltibia 144.964
lfoot 25.3248 -10.146
ltoes -1.96351
296
root -0.885481 2.09437 20.0043 -424.068 -170.483 0.656592
lowerback 39.1464 6.08696 9.64547
upperback 28.7221 -2.22509 2.73867
thorax 14.1663 -5.77833 -2.89461
lowerneck 12.229 10.5228 9.77115
upperneck 2.6229 14.8492 -12.5004
head 0.500699 7.64705 -5.57719
rclavicle 2.40529e-014 -9.14409e-015
rhumerus -243.218 -179.133 89.5652
rradius 68.4624
rwrist -69.7147
rhand -31.694 -24.8346
rfingers 7.12502
rthumb -4.95328 -54.7567
lclavicle 2.40529e-014 -9.14409e-015
lhumerus -430.4 -41.6607 -263.947
lradius 48.0363
lwrist 46.3149
lhand -29.2464 6.32282
lfingers 7.12502
lthumb -2.58969 36.2868
rfemur -274.815 -135.612 197.513
rtibia 126.689
rfoot 23.0885 11.2283
rtoes -17.312
lfemur -99.5307 15.0623 -24.2898
ltibia 143.506
lfoot 25.6525 -9.55216
ltoes -4.47035
297
root -0.887629 2.09702 20.0023 -424.07 -170.507 0.80492
lowerback 38.9875 5.99045 9.69054
upperback 28.6195 -2.24404 2.78035
thorax 14.0834 -5.74617 -2.85362
lowerneck 11.9071 10.5359 9.73952
upperneck 2.98452 14.8554 -12.6545
head 0.666318 7.63275 -5.58577
rclavicle 1.67973e-014 -5.56597e-015
rhumerus -243.373 -178.991 89.6784
rradius 68.4065
rwrist -69.4667
rhand -31.6094 -24.9379
rfingers 7.12502
rthumb -4.87156 -54.8619
lclavicle 1.67973e-014 -5.56597e-015
lhumerus -430.868 -41.7492 -263.474
lradius 48.1534
lwrist 46.391
lhand -29.4543 6.07476
lfingers 7.12502
lthumb -2.79043 36.0363
rfemur -274.73 -135.766 197.516
rtibia 126.736
rfoot 22.9151 11.2394
rtoes -17.3226
lfemur -98.9426 13.7562 -23.998
ltibia 142.067
lfoot 25.8773 -9.01044
ltoes -6.78048
